<?xml version="1.0" encoding="UTF-8" standalone="no"?>
<!-- Created with Inkscape (http://www.inkscape.org/) -->

<svg
   xmlns:dc="http://purl.org/dc/elements/1.1/"
   xmlns:cc="http://creativecommons.org/ns#"
   xmlns:rdf="http://www.w3.org/1999/02/22-rdf-syntax-ns#"
   xmlns:svg="http://www.w3.org/2000/svg"
   xmlns="http://www.w3.org/2000/svg"
   xmlns:xlink="http://www.w3.org/1999/xlink"
   xmlns:sodipodi="http://sodipodi.sourceforge.net/DTD/sodipodi-0.dtd"
   xmlns:inkscape="http://www.inkscape.org/namespaces/inkscape"
   id="svg4125"
   sodipodi:docname="Icons.svg"
   viewBox="0 0 248.81 210.85"
   version="1.1"
   inkscape:version="0.92.3 (2405546, 2018-03-11)">
  <defs
     id="defs4127">
    <linearGradient
       id="linearGradient701"
       y2="49.282"
       gradientUnits="userSpaceOnUse"
       x2="27.469"
       gradientTransform="matrix(0.58147,-0.58147,0.58147,0.58147,-5.2141,32)"
       y1="19.206"
       x1="32.683"
       inkscape:collect="always">
      <stop
         id="stop697"
         style="stop-color:#44aa00;stop-opacity:1"
         offset="0" />
      <stop
         id="stop699"
         style="stop-color:#7fff2a;stop-opacity:1"
         offset="1" />
    </linearGradient>
    <linearGradient
       inkscape:collect="always"
       x1="36.304"
       y1="6.2061"
       gradientTransform="matrix(0.58147,-0.58147,0.58147,0.58147,-5.2146,32.001)"
       x2="27.494"
       gradientUnits="userSpaceOnUse"
       y2="57.588"
       id="linearGradient1375">
      <stop
         offset="0"
         style="stop-color:#B3B3B3"
         id="stop1354" />
      <stop
         offset="1"
         style="stop-color:#B3B3B3"
         id="stop1356" />
    </linearGradient>
    <linearGradient
       inkscape:collect="always"
       x1="36.464"
       y1="6.1829"
       gradientTransform="matrix(0.58147,-0.58147,0.58147,0.58147,-5.2092,32)"
       x2="27.574"
       gradientUnits="userSpaceOnUse"
       y2="57.789"
       id="linearGradient1377">
      <stop
         offset="0"
         style="stop-color:#000000"
         id="stop1367" />
      <stop
         offset="1"
         style="stop-color:#000000"
         id="stop1370" />
    </linearGradient>
    <linearGradient
       inkscape:collect="always"
       xlink:href="#linearGradient1375"
       id="linearGradient284"
       gradientUnits="userSpaceOnUse"
       gradientTransform="matrix(0.58147,-0.58147,0.58147,0.58147,-5.2146,32.001)"
       x1="36.304"
       y1="6.2061"
       x2="27.494"
       y2="57.588" />
    <linearGradient
       inkscape:collect="always"
       xlink:href="#linearGradient1377"
       id="linearGradient286"
       gradientUnits="userSpaceOnUse"
       gradientTransform="matrix(0.58147,-0.58147,0.58147,0.58147,-5.2092,32)"
       x1="36.464"
       y1="6.1829"
       x2="27.574"
       y2="57.789" />
    <linearGradient
       inkscape:collect="always"
       xlink:href="#linearGradient701"
       id="linearGradient288"
       gradientUnits="userSpaceOnUse"
       gradientTransform="matrix(0.58147,-0.58147,0.58147,0.58147,-5.2141,32)"
       x1="32.683"
       y1="19.206"
       x2="27.469"
       y2="49.282" />
    <linearGradient
       id="linearGradient2372">
      <stop
         offset="0"
         style="stop-color:#006f9d"
         id="stop2374" />
      <stop
         offset="1"
         style="stop-color:#7bcefb"
         id="stop2376" />
    </linearGradient>
    <clipPath
       id="clipPath4336"
       clipPathUnits="userSpaceOnUse">
      <rect
         ry="1.1060505"
         y="237.33904"
         x="256.62585"
         height="25.541828"
         width="49.061192"
         id="rect4338"
         style="opacity:1;fill:#1a1a1a;fill-opacity:1;fill-rule:nonzero;stroke:none;stroke-width:1.58158517;stroke-miterlimit:4;stroke-dasharray:1.58158517, 3.16317034;stroke-dashoffset:0;stroke-opacity:1" />
    </clipPath>
    <clipPath
       id="clipPath4336-8"
       clipPathUnits="userSpaceOnUse">
      <rect
         ry="1.1060505"
         y="237.33904"
         x="256.62585"
         height="25.541828"
         width="49.061192"
         id="rect4338-4"
         style="opacity:1;fill:#1a1a1a;fill-opacity:1;fill-rule:nonzero;stroke:none;stroke-width:1.58158517;stroke-miterlimit:4;stroke-dasharray:1.58158517, 3.16317034;stroke-dashoffset:0;stroke-opacity:1" />
    </clipPath>
    <clipPath
       id="clipPath4508"
       clipPathUnits="userSpaceOnUse">
      <rect
         ry="1.0252105"
         y="256.93985"
         x="257.19714"
         height="18.532408"
         width="49.098846"
         id="rect4510"
         style="opacity:1;fill:#f2f2f2;fill-opacity:1;fill-rule:nonzero;stroke:none;stroke-width:1.58158517;stroke-miterlimit:4;stroke-dasharray:1.58158517, 3.16317034;stroke-dashoffset:0;stroke-opacity:1" />
    </clipPath>
    <clipPath
       id="clipPath4554"
       clipPathUnits="userSpaceOnUse">
      <rect
         ry="3.9490783"
         y="665.78583"
         x="-58.526794"
         height="106.19984"
         width="305.75275"
         id="rect4556"
         style="opacity:1;fill:#88aa00;fill-opacity:1;fill-rule:nonzero;stroke:none;stroke-width:1.58158517;stroke-miterlimit:4;stroke-dasharray:1.58158517, 3.16317034;stroke-dashoffset:0;stroke-opacity:1" />
    </clipPath>
    <filter
       inkscape:label="Drop shadow"
       x="-.25"
       y="-.25"
       color-interpolation-filters="sRGB"
       width="1.5"
       height="1.5"
       id="filter3127">
      <feGaussianBlur
         in="SourceAlpha"
         stdDeviation="10"
         result="blur"
         id="feGaussianBlur3129" />
      <feColorMatrix
         result="bluralpha"
         type="matrix"
         values="1 0 0 0 0 0 1 0 0 0 0 0 1 0 0 0 0 0 0.5 0 "
         id="feColorMatrix3131" />
      <feOffset
         in="bluralpha"
         dx="5"
         dy="5"
         result="offsetBlur"
         id="feOffset3133" />
      <feMerge
         id="feMerge3135">
        <feMergeNode
           in="offsetBlur"
           id="feMergeNode3137" />
        <feMergeNode
           in="SourceGraphic"
           id="feMergeNode3139" />
      </feMerge>
    </filter>
    <clipPath
       clipPathUnits="userSpaceOnUse"
       id="clipPath1347">
      <rect
         ry="3"
         rx="3"
         y="135.73564"
         x="72.890404"
         height="20"
         width="20"
         id="rect1349"
         style="opacity:1;fill:#00112b;stroke:none;stroke-width:0.22640325;stroke-miterlimit:4;stroke-dasharray:none;stroke-dashoffset:0" />
    </clipPath>
  </defs>
  <sodipodi:namedview
     id="base"
     bordercolor="#666666"
     inkscape:pageshadow="2"
     inkscape:window-y="27"
     fit-margin-left="0"
     pagecolor="#ffffff"
     fit-margin-top="0"
     inkscape:window-maximized="1"
     inkscape:zoom="2.6895335"
     inkscape:window-x="55"
     inkscape:window-height="713"
     showgrid="false"
     borderopacity="1.0"
     inkscape:current-layer="layer1"
     inkscape:cx="24.501721"
     inkscape:cy="107.59864"
     fit-margin-right="0"
     fit-margin-bottom="0"
     inkscape:window-width="1311"
     inkscape:pageopacity="0.0"
     inkscape:document-units="px" />
  <g
     id="layer1"
     inkscape:label="Layer 1"
     inkscape:groupmode="layer"
     transform="translate(-32.928 -29.017)">
    <rect
       style="opacity:1;fill:none;fill-opacity:1;stroke:none;stroke-width:0.78164685;stroke-linecap:round;stroke-linejoin:round;stroke-miterlimit:4;stroke-dasharray:none;stroke-dashoffset:0;stroke-opacity:1"
       id="rect82"
       width="32"
       height="32"
       x="-47.112808"
       y="134.00342" />
    <g
       inkscape:label="Calque 1"
       id="layer1-9"
       transform="matrix(0.57140397,0,0,0.57140397,104.98897,99.921068)"
       inkscape:export-filename="/home/vadasz/Dropbox/MyProg/Pascal/KDS-K2/icons/plus.png"
       inkscape:export-xdpi="96"
       inkscape:export-ydpi="96">
      <g
         transform="translate(-14,-14)"
         id="g1370">
        <path
           d="m 14.501,35.392 c 0.05,0.543 0.508,0.956 1.053,0.951 h 12.104 v 12.103 c -0.002,0.28 0.109,0.549 0.307,0.747 0.198,0.198 0.467,0.308 0.746,0.307 h 6.579 c 0.28,10e-4 0.548,-0.109 0.746,-0.307 0.198,-0.198 0.309,-0.467 0.308,-0.747 V 36.343 h 12.103 c 0.28,10e-4 0.549,-0.109 0.747,-0.307 0.197,-0.198 0.308,-0.467 0.307,-0.747 v -6.578 c 0.001,-0.28 -0.11,-0.549 -0.307,-0.747 -0.198,-0.198 -0.467,-0.308 -0.747,-0.307 H 36.344 V 15.554 c 10e-4,-0.28 -0.11,-0.549 -0.308,-0.747 C 35.838,14.609 35.57,14.499 35.29,14.5 h -6.579 c -0.279,-10e-4 -0.548,0.109 -0.746,0.307 -0.198,0.198 -0.309,0.467 -0.307,0.747 V 27.657 H 15.554 c -0.28,-0.001 -0.548,0.109 -0.746,0.307 -0.198,0.198 -0.309,0.467 -0.307,0.747 v 6.578 c -0.002,0.035 -0.002,0.069 0,0.103 z"
           style="fill:url(#linearGradient284)"
           id="path1349"
           inkscape:connector-curvature="0" />
        <path
           d="m 15.43,28.874 c -0.087,0.148 -0.129,0.318 -0.123,0.49 v 5.272 c 0.003,0.495 0.404,0.896 0.899,0.899 h 12.26 v 12.259 c 0.002,0.496 0.403,0.897 0.899,0.899 h 5.271 c 0.496,-0.002 0.897,-0.403 0.899,-0.899 V 35.535 h 12.259 c 0.496,-0.003 0.897,-0.404 0.9,-0.899 v -5.272 c -0.003,-0.495 -0.404,-0.896 -0.9,-0.899 H 35.535 V 16.206 C 35.533,15.71 35.132,15.309 34.636,15.307 h -5.271 c -0.496,0.002 -0.897,0.403 -0.899,0.899 v 12.259 h -12.26 c -0.312,-0.007 -0.605,0.148 -0.776,0.409 z"
           style="fill:url(#linearGradient286)"
           id="path1468"
           inkscape:connector-curvature="0" />
        <path
           d="m 15.981,29.262 c -0.014,0.032 -0.021,0.067 -0.02,0.102 v 5.272 c 0.002,0.044 0.016,0.086 0.041,0.122 0.022,0.044 0.058,0.08 0.102,0.103 0.032,0.014 0.067,0.021 0.102,0.02 H 28.71 c 0.113,-0.003 0.232,0.028 0.307,0.102 0.074,0.075 0.105,0.194 0.102,0.307 v 12.504 c 0.002,0.044 0.016,0.086 0.041,0.123 0.023,0.044 0.058,0.079 0.102,0.102 0.032,0.014 0.067,0.021 0.102,0.02 h 5.272 c 0.044,-0.002 0.086,-0.016 0.122,-0.041 0.044,-0.022 0.08,-0.058 0.103,-0.102 0.014,-0.032 0.021,-0.067 0.02,-0.102 V 35.29 c -0.003,-0.113 0.028,-0.232 0.102,-0.307 0.075,-0.074 0.194,-0.105 0.307,-0.102 h 12.504 c 0.044,-0.002 0.086,-0.016 0.123,-0.041 0.044,-0.023 0.079,-0.058 0.102,-0.102 0.014,-0.032 0.021,-0.067 0.02,-0.102 V 29.364 C 48.037,29.32 48.023,29.278 47.998,29.242 47.976,29.198 47.94,29.162 47.896,29.139 47.864,29.125 47.829,29.118 47.794,29.119 H 35.29 C 35.177,29.122 35.058,29.091 34.983,29.017 34.909,28.942 34.878,28.823 34.881,28.71 V 16.206 C 34.879,16.162 34.865,16.12 34.84,16.083 34.817,16.039 34.782,16.004 34.738,15.981 34.706,15.967 34.671,15.96 34.636,15.961 h -5.272 c -0.044,0.002 -0.086,0.016 -0.122,0.041 -0.044,0.022 -0.08,0.058 -0.103,0.102 -0.014,0.032 -0.021,0.067 -0.02,0.102 V 28.71 c 0.003,0.113 -0.028,0.232 -0.102,0.307 -0.075,0.074 -0.194,0.105 -0.307,0.102 H 16.206 c -0.044,0.002 -0.086,0.016 -0.123,0.041 -0.044,0.023 -0.079,0.058 -0.102,0.102 z"
           style="fill:url(#linearGradient288)"
           id="path1472"
           inkscape:connector-curvature="0" />
      </g>
    </g>
    <g
       id="g695"
       transform="matrix(0.0625,0,0,0.0625,64.161056,127.79558)"
       inkscape:export-xdpi="96"
       inkscape:export-ydpi="96"
       inkscape:export-filename="/home/vadasz/Dropbox/MyProg/Pascal/KDS-K2/icons/kilep.png">
      <g
         transform="matrix(5.0986281,0,0,5.0986281,155.12346,-395.71793)"
         id="g685">
        <path
           inkscape:connector-curvature="0"
           id="path1747"
           style="fill:none;stroke:#ffffff;stroke-width:5;stroke-linecap:round;stroke-linejoin:round"
           transform="translate(50)"
           d="m -12.504,11.725 v 7.822 c 6.0611,3.209 9.5062,9.95 8.2982,16.894 -1.3504,7.763 -8.0632,13.336 -15.942,13.265 -7.879,-0.07 -14.493,-5.806 -15.704,-13.592 -1.07,-6.879 2.376,-13.509 8.358,-16.656 v -7.703 c -7.92,2.716 -13.607,9.403 -15.228,17.251 -0.547,2.647 -0.614,5.411 -0.179,8.209 1.74,11.19 11.37,19.558 22.694,19.659 11.324,0.102 21.109,-8.086 23.05,-19.243 1.9412,-11.157 -4.5348,-22.148 -15.228,-25.876 -0.04,-0.014 -0.078,-0.017 -0.119,-0.03 z" />
        <path
           inkscape:connector-curvature="0"
           id="path1748"
           sodipodi:nodetypes="cc"
           style="fill:none;stroke:#ffffff;stroke-width:12.5;stroke-linecap:round;stroke-linejoin:round"
           transform="translate(50)"
           d="m -19.999,6.8746 v 24.511" />
        <path
           inkscape:connector-curvature="0"
           id="path696"
           style="fill:#000000;fill-rule:evenodd"
           transform="matrix(0.95176,0,0,0.95176,1.448,1.5234)"
           d="m 37.875,10.719 v 8.219 c 6.368,3.37 9.988,10.454 8.719,17.75 -1.419,8.156 -8.472,14.011 -16.75,13.937 C 21.565,50.551 14.616,44.524 13.344,36.344 12.22,29.116 15.84,22.15 22.125,18.844 V 10.75 c -8.321,2.854 -14.296,9.88 -16,18.125 -0.5746,2.781 -0.6446,5.686 -0.1875,8.625 1.8285,11.757 11.946,20.549 23.844,20.656 11.897,0.107 22.179,-8.496 24.218,-20.218 2.039,-11.723 -4.765,-23.27 -16,-27.188 -0.042,-0.015 -0.082,-0.018 -0.125,-0.031 z" />
        <path
           inkscape:connector-curvature="0"
           id="path701"
           sodipodi:nodetypes="cc"
           style="fill:none;stroke:#000000;stroke-width:7.97940016;stroke-linecap:round;stroke-linejoin:round"
           transform="matrix(0.93992,0,0,0.93992,1.776,3.8193)"
           d="m 30.029,3.2505 v 26.078" />
      </g>
      <rect
         y="-402.98718"
         x="148.08282"
         height="320"
         width="320"
         id="rect687"
         style="opacity:1;fill:none;fill-opacity:1;stroke:none;stroke-width:1.82756102;stroke-linecap:round;stroke-linejoin:round;stroke-miterlimit:4;stroke-dasharray:none;stroke-dashoffset:0;stroke-opacity:1" />
    </g>
    <g
       id="g1359"
       inkscape:export-xdpi="96"
       inkscape:export-ydpi="96">
      <rect
         ry="3"
         rx="3"
         y="135.73564"
         x="72.890404"
         height="20"
         width="20"
         id="rect536"
         style="opacity:1;fill:#00112b;stroke:none;stroke-width:0.22640325;stroke-miterlimit:4;stroke-dasharray:none;stroke-dashoffset:0" />
      <rect
         clip-path="url(#clipPath1347)"
         ry="2"
         rx="2"
         y="133.05959"
         x="75.453781"
         height="11.962431"
         width="15.183085"
         id="rect1343"
         style="opacity:1;fill:#b3b3b3;stroke:none;stroke-width:1.12815213;stroke-miterlimit:4;stroke-dasharray:none;stroke-dashoffset:0" />
      <rect
         y="136.41168"
         x="85.575851"
         height="6.9014025"
         width="2.9577436"
         id="rect1351"
         style="opacity:1;fill:#00112b;stroke:none;stroke-width:0.88852334;stroke-miterlimit:4;stroke-dasharray:none;stroke-dashoffset:0;fill-opacity:1" />
      <rect
         y="146.4023"
         x="74.402138"
         height="7.7558618"
         width="16.957731"
         id="rect1353"
         style="opacity:1;fill:#e6e6e6;fill-opacity:1;stroke:none;stroke-width:1.10158443;stroke-miterlimit:4;stroke-dasharray:none;stroke-dashoffset:0" />
    </g>
  </g>
  <metadata
     id="metadata79">
    <rdf:RDF>
      <cc:Work>
        <dc:format>image/svg+xml</dc:format>
        <dc:type
           rdf:resource="http://purl.org/dc/dcmitype/StillImage" />
        <cc:license
           rdf:resource="http://creativecommons.org/publicdomain/zero/1.0/" />
        <dc:publisher>
          <cc:Agent
             rdf:about="http://openclipart.org/">
            <dc:title>Openclipart</dc:title>
          </cc:Agent>
        </dc:publisher>
        <dc:title></dc:title>
        <dc:date>2011-06-13T16:28:01</dc:date>
        <dc:description>Cinema icon</dc:description>
        <dc:source>https://openclipart.org/detail/145165/movie-tape-icon-by-gsagri04</dc:source>
        <dc:creator>
          <cc:Agent>
            <dc:title>gsagri04</dc:title>
          </cc:Agent>
        </dc:creator>
        <dc:subject>
          <rdf:Bag>
            <rdf:li>Cinema</rdf:li>
            <rdf:li>count</rdf:li>
            <rdf:li>down</rdf:li>
            <rdf:li>film</rdf:li>
            <rdf:li>icon</rdf:li>
            <rdf:li>movie</rdf:li>
            <rdf:li>tape</rdf:li>
            <rdf:li>theater</rdf:li>
          </rdf:Bag>
        </dc:subject>
      </cc:Work>
      <cc:License
         rdf:about="http://creativecommons.org/publicdomain/zero/1.0/">
        <cc:permits
           rdf:resource="http://creativecommons.org/ns#Reproduction" />
        <cc:permits
           rdf:resource="http://creativecommons.org/ns#Distribution" />
        <cc:permits
           rdf:resource="http://creativecommons.org/ns#DerivativeWorks" />
      </cc:License>
    </rdf:RDF>
  </metadata>
</svg>
